<svg width="11" height="14" viewBox="0 0 11 14" fill="none" xmlns="http://www.w3.org/2000/svg">
<g id="PayPal">
<path id="Vector" d="M3.23573 12.7689L3.45026 11.4064L2.97244 11.3953H0.690796L2.27644 1.34112C2.28128 1.31077 2.29733 1.28247 2.32071 1.26237C2.34409 1.24228 2.37408 1.2312 2.40525 1.2312H6.25246C7.52971 1.2312 8.41108 1.49698 8.87131 2.02157C9.08702 2.26766 9.22445 2.52483 9.29092 2.80783C9.36058 3.1048 9.36188 3.45957 9.29375 3.89229L9.2888 3.92387V4.20113L9.50462 4.32337C9.68633 4.41974 9.8306 4.53008 9.94135 4.65641C10.126 4.86682 10.2454 5.13424 10.2958 5.45128C10.3479 5.77736 10.3306 6.16537 10.2454 6.60465C10.1469 7.10996 9.98775 7.55006 9.77287 7.91017C9.57511 8.24199 9.32327 8.51714 9.02433 8.73049C8.73884 8.93309 8.39963 9.08693 8.01615 9.1854C7.64447 9.2821 7.22085 9.33098 6.75614 9.33098H6.45672C6.24267 9.33098 6.03463 9.40808 5.87146 9.54633C5.70782 9.68742 5.59944 9.88011 5.56626 10.091L5.54371 10.2136L5.16471 12.615L5.14747 12.7032C5.14299 12.7312 5.1352 12.7451 5.12374 12.7546C5.11347 12.7631 5.09871 12.7689 5.08431 12.7689H3.23573Z" fill="#253B80"/>
<path id="Vector_2" d="M9.70793 3.95642C9.69648 4.02983 9.68337 4.10489 9.66862 4.182C9.16116 6.7869 7.42546 7.68678 5.20852 7.68678H4.0798C3.80871 7.68678 3.58025 7.88365 3.53799 8.15107L2.96005 11.8163L2.79641 12.8551C2.7689 13.0307 2.90432 13.189 3.08142 13.189H5.08348C5.32056 13.189 5.52187 13.0168 5.55917 12.783L5.57889 12.6812L5.95588 10.2892L5.98008 10.158C6.01692 9.92341 6.2187 9.75115 6.45577 9.75115H6.75519C8.6948 9.75115 10.2133 8.96364 10.6571 6.68477C10.8424 5.7328 10.7464 4.93792 10.2559 4.37888C10.1075 4.2103 9.92329 4.07044 9.70793 3.95642Z" fill="#179BD7"/>
<path id="Vector_3" d="M9.1761 3.74412C9.09865 3.72156 9.0186 3.70105 8.93654 3.68259C8.85413 3.66455 8.7696 3.64855 8.6827 3.63461C8.37832 3.58539 8.0449 3.56201 7.68763 3.56201H4.6722C4.59793 3.56201 4.52745 3.57882 4.46428 3.60918C4.3252 3.67603 4.22189 3.8077 4.19686 3.96888L3.55528 8.03189L3.53687 8.15041C3.57913 7.88299 3.80759 7.68612 4.07868 7.68612H5.2074C7.42434 7.68612 9.16016 6.78583 9.6675 4.18134C9.68261 4.10423 9.69536 4.02918 9.70681 3.95577C9.57847 3.88768 9.43939 3.82943 9.28968 3.7798C9.25284 3.7675 9.21471 3.75561 9.1761 3.74412Z" fill="#222D65"/>
<path id="Vector_4" d="M4.19867 3.96919C4.22371 3.80799 4.32713 3.67633 4.4661 3.60989C4.52973 3.57953 4.59987 3.56272 4.67401 3.56272H7.68956C8.04683 3.56272 8.38025 3.5861 8.68451 3.63532C8.77153 3.64926 8.85606 3.66526 8.93847 3.6833C9.02053 3.70177 9.10046 3.72227 9.17803 3.74483C9.21652 3.75631 9.25466 3.7682 9.29197 3.7801C9.44168 3.82973 9.58076 3.88838 9.7091 3.95606C9.86011 2.99342 9.70792 2.338 9.18748 1.7445C8.61367 1.09113 7.57799 0.811401 6.2528 0.811401H2.40547C2.13475 0.811401 1.90392 1.00827 1.86201 1.2761L0.259605 11.4336C0.227963 11.6346 0.382985 11.8159 0.585588 11.8159H2.96086L3.55722 8.03218L4.19867 3.96919Z" fill="#253B80"/>
</g>
</svg>
