<svg width="16" height="18" viewBox="0 0 16 18" fill="none" xmlns="http://www.w3.org/2000/svg">
<path id="a" d="M14.1644 0C14.6947 0 15.1332 0.183785 15.4799 0.551353C15.8266 0.918919 16 1.39459 16 1.97838V15.6973C16 16.2595 15.8266 16.7351 15.4799 17.1243C15.1332 17.4919 14.6947 17.6757 14.1644 17.6757C13.6342 17.6757 13.1957 17.4919 12.8489 17.1243C12.5226 16.7568 12.3493 16.2919 12.3289 15.7297C11.819 16.3568 11.1256 16.8973 10.2486 17.3514C9.39197 17.7838 8.48439 18 7.52581 18C6.11855 18 4.84385 17.6216 3.70172 16.8649C2.55959 16.0865 1.65201 15.0162 0.978968 13.6541C0.326323 12.2919 0 10.7459 0 9.01622C0 7.28649 0.326323 5.74054 0.978968 4.37838C1.63161 2.99459 2.5188 1.92432 3.64054 1.16757C4.78266 0.38919 6.03697 0 7.40344 0C8.38241 0 9.30019 0.194595 10.1568 0.583784C11.0134 0.951351 11.7374 1.42703 12.3289 2.01081V1.97838C12.3289 1.41621 12.5022 0.951351 12.8489 0.583784C13.1957 0.194595 13.6342 0 14.1644 0ZM7.9847 14.4324C9.31039 14.4324 10.3913 13.9243 11.2275 12.9081C12.0637 11.8703 12.4818 10.573 12.4818 9.01622C12.4818 7.45946 12.0637 6.16216 11.2275 5.12432C10.3913 4.08649 9.31039 3.56757 7.9847 3.56757C6.67941 3.56757 5.60867 4.08649 4.77247 5.12432C3.93626 6.16216 3.51816 7.45946 3.51816 9.01622C3.51816 10.573 3.92607 11.8703 4.74187 12.9081C5.57808 13.9243 6.65902 14.4324 7.9847 14.4324Z" fill="#5243C2"/>
</svg>
