<svg width="25" height="11" viewBox="0 0 25 11" fill="none" xmlns="http://www.w3.org/2000/svg">
<g id="GooglePay">
<g id="Pay">
<path id="Union" fill-rule="evenodd" clip-rule="evenodd" d="M11.5301 8.75809V5.73713H13.0893C13.7282 5.73713 14.2675 5.52305 14.7071 5.10083L14.8126 4.99379C15.6156 4.11961 15.5629 2.75781 14.7071 1.94905C14.2792 1.52088 13.6931 1.28896 13.0893 1.30085H10.5864V8.75809H11.5301ZM11.5302 4.82132V2.21664H13.1131C13.4531 2.21664 13.7756 2.34747 14.0159 2.58534C14.526 3.08487 14.5377 3.91741 14.0453 4.43478C13.8049 4.69049 13.4649 4.83321 13.1131 4.82132H11.5302ZM19.2147 4.05421C18.8102 3.67956 18.2592 3.48926 17.5617 3.48926C16.6649 3.48926 15.9908 3.82228 15.5453 4.48237L16.3777 5.01163C16.6825 4.55968 17.0986 4.3337 17.6262 4.3337C17.9603 4.3337 18.2827 4.45859 18.5347 4.68456C18.7809 4.89865 18.9216 5.20788 18.9216 5.53495V5.75498C18.5582 5.55279 18.101 5.44575 17.5383 5.44575C16.8818 5.44575 16.3542 5.60036 15.9615 5.91554C15.5688 6.23072 15.3695 6.64699 15.3695 7.17626C15.3578 7.65794 15.5629 8.11584 15.9263 8.42508C16.2956 8.75809 16.7645 8.9246 17.3155 8.9246C17.9661 8.9246 18.482 8.63321 18.8747 8.05043H18.9157V8.75809H19.8184V5.61226C19.8184 4.95217 19.6191 4.42885 19.2147 4.05421ZM16.6533 7.8185C16.4599 7.67578 16.3426 7.44386 16.3426 7.19409C16.3426 6.9146 16.4716 6.68267 16.7237 6.49832C16.9816 6.31397 17.3041 6.21882 17.6851 6.21882C18.2127 6.21288 18.6231 6.33181 18.9162 6.56968C18.9162 6.97406 18.758 7.32492 18.4472 7.62226C18.1658 7.90771 17.7848 8.06827 17.3861 8.06827C17.1223 8.07421 16.8644 7.98501 16.6533 7.8185ZM21.8465 11L25 3.65578H23.9743L22.5147 7.31898H22.4972L21.0025 3.65578H19.9767L22.0458 8.43102L20.8735 11H21.8465Z" fill="#3C4043"/>
</g>
<g id="G">
<path id="Blue" d="M8.27214 5.08295C8.27214 4.79156 8.24869 4.50017 8.2018 4.21472H4.2218V5.86197H6.50195C6.40816 6.39124 6.10336 6.86698 5.65788 7.16431V8.23473H7.01777C7.81494 7.49139 8.27214 6.39124 8.27214 5.08295Z" fill="#4285F4"/>
<path id="Green" d="M4.22199 9.26948C5.35913 9.26948 6.32042 8.88889 7.01795 8.23475L5.65807 7.16433C5.27707 7.42599 4.79056 7.57466 4.22199 7.57466C3.12001 7.57466 2.18802 6.81942 1.85392 5.80847H0.453003V6.91457C1.16811 8.35963 2.62764 9.26948 4.22199 9.26948Z" fill="#34A853"/>
<path id="Yellow" d="M1.85401 5.80847C1.67814 5.27921 1.67814 4.70238 1.85401 4.16717V3.06702H0.452878C-0.150959 4.27421 -0.150959 5.70143 0.452878 6.90863L1.85401 5.80847Z" fill="#FBBC04"/>
<path id="Red" d="M4.22199 2.40102C4.82573 2.38912 5.40602 2.62105 5.83978 3.04327L7.04726 1.81824C6.27939 1.09273 5.2712 0.694298 4.22199 0.706191C2.62764 0.706191 1.16811 1.62199 0.453003 3.06706L1.85392 4.17315C2.18802 3.15626 3.12001 2.40102 4.22199 2.40102Z" fill="#EA4335"/>
</g>
</g>
</svg>
