<svg width="20" height="20" viewBox="0 0 20 20" fill="none" xmlns="http://www.w3.org/2000/svg">
<g id="Group">
<path id="Vector" d="M3.33331 12.4999V7.08325C3.33331 6.08869 3.7284 5.13486 4.43166 4.4316C5.13492 3.72834 6.08875 3.33325 7.08331 3.33325C8.07787 3.33325 9.0317 3.72834 9.73496 4.4316C10.4382 5.13486 10.8333 6.08869 10.8333 7.08325V12.9166C10.8333 13.4691 11.0528 13.999 11.4435 14.3897C11.8342 14.7804 12.3641 14.9999 12.9166 14.9999C13.4692 14.9999 13.9991 14.7804 14.3898 14.3897C14.7805 13.999 15 13.4691 15 12.9166V7.35825C14.4437 7.16166 13.9749 6.77475 13.6763 6.26591C13.3778 5.75707 13.2687 5.15907 13.3685 4.57759C13.4682 3.99612 13.7703 3.46863 14.2213 3.08836C14.6724 2.70808 15.2434 2.49951 15.8333 2.49951C16.4233 2.49951 16.9942 2.70808 17.4453 3.08836C17.8963 3.46863 18.1984 3.99612 18.2982 4.57759C18.3979 5.15907 18.2888 5.75707 17.9903 6.26591C17.6917 6.77475 17.2229 7.16166 16.6666 7.35825V12.9166C16.6666 13.9111 16.2716 14.865 15.5683 15.5682C14.865 16.2715 13.9112 16.6666 12.9166 16.6666C11.9221 16.6666 10.9683 16.2715 10.265 15.5682C9.56173 14.865 9.16665 13.9111 9.16665 12.9166V7.08325C9.16665 6.53072 8.94715 6.00081 8.55645 5.61011C8.16575 5.21941 7.63585 4.99992 7.08331 4.99992C6.53078 4.99992 6.00087 5.21941 5.61017 5.61011C5.21947 6.00081 4.99998 6.53072 4.99998 7.08325V12.4999H7.49998L4.16665 16.6666L0.833313 12.4999H3.33331ZM15.8333 5.83325C16.0543 5.83325 16.2663 5.74545 16.4226 5.58917C16.5788 5.43289 16.6666 5.22093 16.6666 4.99992C16.6666 4.7789 16.5788 4.56694 16.4226 4.41066C16.2663 4.25438 16.0543 4.16658 15.8333 4.16658C15.6123 4.16658 15.4003 4.25438 15.2441 4.41066C15.0878 4.56694 15 4.7789 15 4.99992C15 5.22093 15.0878 5.43289 15.2441 5.58917C15.4003 5.74545 15.6123 5.83325 15.8333 5.83325Z" fill="#FF4D4F"/>
</g>
</svg>
