<svg width="20" height="20" viewBox="0 0 20 20" fill="none" xmlns="http://www.w3.org/2000/svg">
<g id="Group">
<path id="Vector" d="M10 18.3334C5.39752 18.3334 1.66669 14.6026 1.66669 10.0001C1.66669 5.39758 5.39752 1.66675 10 1.66675C14.6025 1.66675 18.3334 5.39758 18.3334 10.0001C18.3334 14.6026 14.6025 18.3334 10 18.3334ZM10 16.6667C11.7681 16.6667 13.4638 15.9644 14.7141 14.7141C15.9643 13.4639 16.6667 11.7682 16.6667 10.0001C16.6667 8.23197 15.9643 6.53628 14.7141 5.28604C13.4638 4.03579 11.7681 3.33341 10 3.33341C8.23191 3.33341 6.53622 4.03579 5.28598 5.28604C4.03573 6.53628 3.33335 8.23197 3.33335 10.0001C3.33335 11.7682 4.03573 13.4639 5.28598 14.7141C6.53622 15.9644 8.23191 16.6667 10 16.6667V16.6667ZM5.83335 10.8334H7.50002C7.50002 11.4965 7.76341 12.1323 8.23225 12.6012C8.70109 13.07 9.33698 13.3334 10 13.3334C10.6631 13.3334 11.2989 13.07 11.7678 12.6012C12.2366 12.1323 12.5 11.4965 12.5 10.8334H14.1667C14.1667 11.9385 13.7277 12.9983 12.9463 13.7797C12.1649 14.5611 11.1051 15.0001 10 15.0001C8.89495 15.0001 7.83514 14.5611 7.05374 13.7797C6.27234 12.9983 5.83335 11.9385 5.83335 10.8334V10.8334ZM6.66669 9.16675C6.33517 9.16675 6.01722 9.03505 5.7828 8.80063C5.54838 8.56621 5.41669 8.24827 5.41669 7.91675C5.41669 7.58523 5.54838 7.26729 5.7828 7.03286C6.01722 6.79844 6.33517 6.66675 6.66669 6.66675C6.99821 6.66675 7.31615 6.79844 7.55057 7.03286C7.78499 7.26729 7.91669 7.58523 7.91669 7.91675C7.91669 8.24827 7.78499 8.56621 7.55057 8.80063C7.31615 9.03505 6.99821 9.16675 6.66669 9.16675ZM13.3334 9.16675C13.0018 9.16675 12.6839 9.03505 12.4495 8.80063C12.2151 8.56621 12.0834 8.24827 12.0834 7.91675C12.0834 7.58523 12.2151 7.26729 12.4495 7.03286C12.6839 6.79844 13.0018 6.66675 13.3334 6.66675C13.6649 6.66675 13.9828 6.79844 14.2172 7.03286C14.4517 7.26729 14.5834 7.58523 14.5834 7.91675C14.5834 8.24827 14.4517 8.56621 14.2172 8.80063C13.9828 9.03505 13.6649 9.16675 13.3334 9.16675Z" fill="#FF4D4F"/>
</g>
</svg>
