<svg xmlns="http://www.w3.org/2000/svg" width="874" height="775" viewBox="0 0 874 775" fill="none">
<path fill-rule="evenodd" clip-rule="evenodd" d="M431.717 0.000215103C511.656 0.132414 571.676 64.9634 640.185 106.144C717.022 152.332 818.988 173.557 856.148 255.128C894.179 338.611 864.816 437.517 829.765 522.293C796.719 602.22 739.092 669.123 665.909 715.243C596.175 759.19 513.684 781.899 431.717 773.145C354.934 764.943 297.38 708.701 231.263 668.819C157.164 624.122 59.4292 604.105 22.0863 526.055C-16.4658 445.478 -0.337957 345.765 38.1242 265.145C74.0354 189.873 153.568 152.057 222.747 105.454C289.078 60.7697 351.732 -0.132061 431.717 0.000215103Z" fill="#F8F8FF"/>
</svg>