<svg width="23" height="22" viewBox="0 0 23 22" fill="none" xmlns="http://www.w3.org/2000/svg">
<g id="fire 1">
<path id="Vector" d="M13.4167 1C9.43867 3.4558 9.91673 10.375 9.91673 10.375C9.91673 10.375 8.16675 9.74998 8.16675 6.93751C6.07889 8.23465 4.66675 10.7278 4.66675 13.5C4.66675 17.6421 7.80075 21 11.6667 21C15.5327 21 18.6667 17.6421 18.6667 13.5C18.6667 7.40626 13.4167 6.15624 13.4167 1ZM12.2816 18.4157C10.875 18.7915 9.45033 17.8744 9.09955 16.3672C8.74885 14.8601 9.60483 13.3336 11.0115 12.9578C14.4076 12.0506 14.8332 10.0045 14.8332 10.0045C14.8332 10.0045 16.5267 17.2817 12.2816 18.4157Z" fill="white"/>
</g>
</svg>
