<svg width="17" height="16" viewBox="0 0 17 16" fill="none" xmlns="http://www.w3.org/2000/svg">
<g id="scale (1) 1" clip-path="url(#clip0_870_2438)">
<g id="Group">
<g id="Group_2">
<path id="Vector" d="M15.7746 1.52534C15.3654 1.04789 14.8197 0.775033 14.2058 0.843263H2.40572C1.17796 0.843263 0.154829 2.00282 0.359456 3.23058L1.99647 13.4619C2.1329 14.485 3.0196 15.1671 4.04273 15.1671H12.637C13.6602 15.1671 14.5469 14.4168 14.6833 13.4619L16.3203 3.23058C16.3885 2.6167 16.1839 2.00282 15.7746 1.52534ZM9.77227 9.7104C9.56765 9.50577 9.36302 9.36934 9.09019 9.30115L9.63588 6.5728L8.27169 6.29998L7.65781 9.23295C7.38499 9.30114 7.11213 9.50577 6.8393 9.7104L3.42885 6.36818C6.089 3.70803 10.3862 3.70803 13.0463 6.36818L9.77227 9.7104Z" fill="white"/>
</g>
</g>
</g>
<defs>
<clipPath id="clip0_870_2438">
<rect width="16" height="16" fill="white" transform="translate(0.333252)"/>
</clipPath>
</defs>
</svg>
